<?xml version="1.0" encoding="utf-8"?>
<!-- Generator: Adobe Illustrator 20.0.0, SVG Export Plug-In . SVG Version: 6.00 Build 0)  -->
<svg version="1.1" id="Layer_1" xmlns="http://www.w3.org/2000/svg" xmlns:xlink="http://www.w3.org/1999/xlink" x="0px" y="0px"
	 viewBox="0 0 900 900" style="enable-background:new 0 0 900 900;" xml:space="preserve">
<style type="text/css">
	.st0{fill:#BFA1E3;}
</style>
<path class="st0" d="M0,0v900h900V0H0z M831.4,71.1c5.8,0,10.5,4.7,10.5,10.5S837.2,92,831.4,92s-10.5-4.7-10.5-10.5
	S825.7,71.1,831.4,71.1z M803.6,156.3h0.3h51.6h0.3v11.9h-0.3h-51.6h-0.3V156.3z M803.6,237.7h0.3h19.7v-20h0.3h11.7h0.3v20h19.7
	h0.3v11.9h-0.3h-19.7v20h-0.3h-11.7h-0.3v-20h-19.7h-0.3V237.7z M803.6,319.1h0.3h51.6h0.3V331h-0.3h-51.6h-0.3V319.1z M803.6,400.4
	h0.3h19.7v-20h0.3h11.7h0.3v20h19.7h0.3v11.9h-0.3h-19.7v20h-0.3h-11.7h-0.3v-20h-19.7h-0.3V400.4z M803.6,481.8h0.3h51.6h0.3v11.9
	h-0.3h-51.6h-0.3V481.8z M803.6,563.2h51.9v11.9h-51.9V563.2z M803.6,644.6h0.3h51.6h0.3v11.9h-0.3h-51.6h-0.3V644.6z M719,74.9
	h51.9v11.9H719V74.9z M719,237.7h20v-20h11.9v20h20v11.9h-20v20H739v-20h-20V237.7z M719,319.1h20v-20h11.9v20h20V331h-20v20H739
	v-20h-20V319.1z M719,400.4h51.9v11.9H719V400.4z M719,481.8h51.9v11.9H719V481.8z M719,563.2h20v-20h11.9v20h20v11.9h-20v20H739
	v-20h-20V563.2z M719,644.6h20v-20h11.9v20h20v11.9h-20v20H739v-20h-20V644.6z M635.1,74.9H687v11.9h-51.9V74.9z M635,156.3
	L635,156.3h51.8h0.1v11.9h-0.1h-51.7H635V156.3z M635,237.7L635,237.7h20v-20h0.1h11.8h0.1v20h19.8h0.1v11.9h-0.1H667v20h-0.1h-11.8
	H655v-20h-19.8H635V237.7z M635,319.1L635,319.1h20v-20h0.1h11.8h0.1v20h19.8h0.1V331h-0.1H667v20h-0.1h-11.8H655v-20h-19.8H635
	V319.1z M635,481.8L635,481.8h51.8h0.1v11.9h-0.1h-51.7H635V481.8z M635,563.2L635,563.2h20v-20h0.1h11.8h0.1v20h19.8h0.1v11.9h-0.1
	H667v20h-0.1h-11.8H655v-20h-19.8H635V563.2z M635,644.6L635,644.6h20v-20h0.1h11.8h0.1v20h19.8h0.1v11.9h-0.1H667v20h-0.1h-11.8
	H655v-20h-19.8H635V644.6z M383.7,74.9h51.9v11.9h-51.9V74.9z M383.6,156.3h0.1h20v-20h11.9v20h19.9h0.1v11.9h-0.1h-19.9v20h-11.9
	v-20h-20h-0.1V156.3z M383.6,237.7h0.1h20v-20h11.9v20h19.9h0.1v11.9h-0.1h-19.9v20h-11.9v-20h-20h-0.1V237.7z M214.4,74.9h51.9
	v11.9h-51.9V74.9z M214.4,237.7h20v-20h11.9v20h20v11.9h-20v20h-11.9v-20h-20V237.7z M214.4,319.1h20v-20h11.9v20h20V331h-20v20
	h-11.9v-20h-20V319.1z M214.4,481.8h20v-20h11.9v20h20v11.9h-20v20h-11.9v-20h-20V481.8z M71,71.1c5.8,0,10.5,4.7,10.5,10.5
	S76.7,92,71,92c-5.8,0-10.5-4.7-10.5-10.5S65.2,71.1,71,71.1z M46,156.3h51.9v11.9H46V156.3z M46,237.7h20v-20h11.9v20h20v11.9h-20
	v20H66v-20H46V237.7z M46,400.4h20v-20h11.9v20h20v11.9h-20v20H66v-20H46V400.4z M46,563.2h20v-20h11.9v20h20v11.9h-20v20H66v-20H46
	V563.2z M46,644.6h51.9v11.9H46V644.6z M46,725.9h20v-20h11.9v20h20v11.9h-20v20H66v-20H46V725.9z M98.4,827.3H46.5v-11.9h51.9
	V827.3z M98.4,811.1H46.5v-11.9h51.9V811.1z M98.4,501.8H46.5v-11.9h51.9V501.8z M98.4,485.6H46.5v-11.9h51.9V485.6z M98.4,339.1
	H46.5v-11.9h51.9V339.1z M98.4,322.8H46.5v-11.9h51.9V322.8z M182.2,827.3h-51.9v-11.9h51.9L182.2,827.3L182.2,827.3z M182.2,811.1
	h-51.9v-11.9h51.9L182.2,811.1L182.2,811.1z M182.5,737.8h-20v20h-11.9v-20h-20v-11.9h20v-20h11.9v20h20V737.8z M182.5,656.5h-51.9
	v-11.9h51.9V656.5z M182.5,575.1h-0.8h-19.2v20h-0.8h-11.1h-0.8v-20h-19.2h-0.8v-11.9h0.8h19.2v-20h0.8h11.1h0.8v20h19.2h0.8V575.1z
	 M182.5,493.7h-0.8h-19.2v20h-0.8h-11.1h-0.8v-20h-19.2h-0.8v-11.9h0.8h19.2v-20h0.8h11.1h0.8v20h19.2h0.8V493.7z M182.2,408.6v11.9
	h-51.9v-11.9H182.2z M130.3,404.2v-11.9h51.9v11.9H130.3z M182.5,331h-0.8h-51h-0.8v-11.9h0.8h51h0.8V331z M182.5,249.6h-0.8h-19.2
	v20h-0.8h-11.1h-0.8v-20h-19.2h-0.8v-11.9h0.8h19.2v-20h0.8h11.1h0.8v20h19.2h0.8V249.6z M182.5,168.2h-0.8h-51h-0.8v-11.9h0.8h51
	h0.8V168.2z M182.5,86.4h-0.8v0.4h-51.9V74.9h51.9v0.4h0.8L182.5,86.4L182.5,86.4z M266.3,819.2h-20v20h-11.9v-20h-20v-11.9h20v-20
	h11.9v20h20V819.2z M266.3,737.8h-20v20h-11.9v-20h-20v-11.9h20v-20h11.9v20h20V737.8z M266.3,656.5h-51.9v-11.9h51.9V656.5z
	 M266.8,583.2H215v-11.9h51.9v11.9H266.8z M266.8,566.9H215V555h51.9v11.9H266.8z M266.8,420.5H215v-11.9h51.9v11.9H266.8z
	 M266.8,404.2H215v-11.9h51.9v11.9H266.8z M266.8,176.3H215v-11.9h51.9v11.9H266.8z M266.8,160.1H215v-11.9h51.9v11.9H266.8z
	 M350.6,827.3h-51.9v-11.9h51.9V827.3z M350.6,811.1h-51.9v-11.9h51.9V811.1z M350.7,737.8h-0.6h-51.2h-0.6v-11.9h0.6h51.2h0.6
	V737.8z M350.7,656.5h-0.6h-51.2h-0.6v-11.9h0.6h51.2h0.6V656.5z M350.6,327.2v11.9h-51.9v-11.9H350.6z M298.8,322.8v-11.9h51.9
	v11.9H298.8z M350.6,392.3v11.9h-51.9v-11.9H350.6z M350.6,408.6v11.9h-51.9v-11.9H350.6z M334.9,488.1c0,5.8-4.7,10.5-10.5,10.5
	s-10.5-4.7-10.5-10.5s4.7-10.5,10.5-10.5C330.2,477.6,334.9,482.3,334.9,488.1z M350.6,555v11.9h-51.9V555H350.6z M350.6,571.3v11.9
	h-51.9v-11.9H350.6z M350.7,249.6h-0.6h-19.4v20h-0.6h-11.3h-0.6v-20h-19.4h-0.6v-11.9h0.6h19.4v-20h0.6h11.3h0.6v20h19.4h0.6V249.6
	z M350.7,168.2h-0.6h-51.2h-0.6v-11.9h0.6h51.2h0.6V168.2z M350.7,86.8h-0.6h-51.2h-0.6V74.9h0.6h51.2h0.6V86.8z M435.5,819.2h-0.1
	h-19.9v20h-11.9v-20h-20h-0.1v-11.9h0.1h20v-20h11.9v20h19.9h0.1V819.2z M435.5,737.8h-0.1h-19.9v20h-11.9v-20h-20h-0.1v-11.9h0.1
	h20v-20h11.9v20h19.9h0.1V737.8z M435.5,656.5h-20v20h-11.9v-20h-20v-11.9h20v-20h11.9v20h20V656.5z M435.5,575.1h-0.1h-19.9v20
	h-11.9v-20h-20h-0.1v-11.9h0.1h20v-20h11.9v20h19.9h0.1V575.1z M435.5,493.7h-0.1h-51.7h-0.1v-11.9h0.1h51.7h0.1V493.7z
	 M435.5,412.3h-0.1h-19.9v20h-11.9v-20h-20h-0.1v-11.9h0.1h20v-20h11.9v20h19.9h0.1V412.3z M436.1,339.1h-51.9v-11.9h51.9V339.1z
	 M436.1,322.8h-51.9v-11.9h51.9V322.8z M518.6,819.2h-0.9h-20v20h-11.9v-20h-19.1h-0.9v-11.9h0.9h19.1v-20h11.9v20h20h0.9V819.2z
	 M518.3,734.1V746h-51.9v-11.9H518.3z M466.4,729.7v-11.9h51.9v11.9H466.4z M518.6,656.5h-0.9h-20v20h-11.9v-20h-19.1h-0.9v-11.9
	h0.9h19.1v-20h11.9v20h20h0.9V656.5z M518.3,327.2v11.9h-51.9v-11.9H518.3z M466.4,322.8v-11.9h51.9v11.9H466.4z M518.3,392.3v11.9
	h-51.9v-11.9H518.3z M518.3,408.6v11.9h-51.9v-11.9H518.3z M502.7,488.1c0,5.8-4.7,10.5-10.5,10.5s-10.5-4.7-10.5-10.5
	s4.7-10.5,10.5-10.5S502.7,482.3,502.7,488.1z M518.3,555v11.9h-51.9V555H518.3z M518.3,571.3v11.9h-51.9v-11.9H518.3z M518.6,249.6
	h-0.9h-20v20h-11.9v-20h-19.1h-0.9v-11.9h0.9h19.1v-20h11.9v20h20h0.9V249.6z M518.6,168.2h-0.9h-20v20h-11.9v-20h-19.1h-0.9v-11.9
	h0.9h19.1v-20h11.9v20h20h0.9V168.2z M518.6,86.8h-0.9h-51h-0.9V74.9h0.9h51h0.9V86.8z M602.7,819.2h-1.2h-18.8v20h-1.2h-10.7h-1.2
	v-20h-18.8h-1.2v-11.9h1.2h18.8v-20h1.2h10.7h1.2v20h18.8h1.2V819.2z M602.7,737.8h-1.2h-18.8v20h-1.2h-10.7h-1.2v-20h-18.8h-1.2
	v-11.9h1.2h18.8v-20h1.2h10.7h1.2v20h18.8h1.2V737.8z M602.7,656.5h-1.2h-50.7h-1.2v-11.9h1.2h50.7h1.2V656.5z M602.7,575.1h-1.2
	h-20v20h-11.9v-20h-18.8h-1.2v-11.9h1.2h18.8v-20h11.9v20h20h1.2V575.1z M602.7,493.7h-1.2h-50.7h-1.2v-11.9h1.2h50.7h1.2V493.7z
	 M602.7,412.3h-1.2h-18.8v20h-1.2h-10.7h-1.2v-20h-18.8h-1.2v-11.9h1.2h18.8v-20h1.2h10.7h1.2v20h18.8h1.2V412.3z M602.7,331h-1.2
	h-20v20h-11.9v-20h-18.8h-1.2v-11.9h1.2h18.8v-20h11.9v20h20h1.2V331z M602.7,249.6h-1.2h-50.7h-1.2v-11.9h1.2h50.7h1.2V249.6z
	 M602.7,168.2h-1.2h-50.7h-1.2v-11.9h1.2h50.7h1.2V168.2z M602.7,86.8h-1.2h-50.7h-1.2V74.9h1.2h50.7h1.2V86.8z M635,737.8v-11.9
	h0.1H655v-20h0.1h11.8h0.1v20h19.8h0.1v11.9h-0.1H667v20h-0.1h-11.8H655v-20h-19.8H635z M687.5,827.3h-51.9v-11.9h51.9V827.3z
	 M687.5,811.1h-51.9v-11.9h51.9V811.1z M687.5,420.5h-51.9v-11.9h51.9V420.5z M687.5,404.2h-51.9v-11.9h51.9V404.2z M719,725.9h20
	v-20h11.9v20h20v11.9h-20v20H739v-20h-20V725.9z M771.4,827.3h-51.9v-11.9h51.9V827.3z M771.4,811.1h-51.9v-11.9h51.9V811.1z
	 M771.4,176.3h-51.9v-11.9h51.9V176.3z M771.4,160.1h-51.9v-11.9h51.9V160.1z M803.6,737.8v-11.9h0.3h51.6h0.3v11.9h-0.3h-51.6
	H803.6z M856,827.3h-51.9v-11.9H856V827.3z M856,811.1h-51.9v-11.9H856V811.1z"/>
</svg>
